<svg xmlns="http://www.w3.org/2000/svg" viewBox="0 0 960 540" role="img" aria-labelledby="title desc">
  <title id="title">D4ET dashboard illustration</title>
  <desc id="desc">Stylized dashboard mock representing the Diablo 4 Events Tracker.</desc>
  <defs>
    <linearGradient id="grad" x1="0%" y1="0%" x2="100%" y2="100%">
      <stop offset="0%" stop-color="#0ea5e9" stop-opacity="0.8" />
      <stop offset="100%" stop-color="#312e81" stop-opacity="0.9" />
    </linearGradient>
  </defs>
  <rect width="960" height="540" fill="#020617" rx="28" />
  <rect x="32" y="32" width="896" height="476" rx="24" fill="#0f172a" />
  <rect x="64" y="72" width="240" height="120" rx="20" fill="url(#grad)" opacity="0.9" />
  <rect x="332" y="72" width="564" height="120" rx="20" fill="#1e293b" />
  <rect x="64" y="224" width="832" height="96" rx="18" fill="#1f2937" />
  <rect x="64" y="336" width="264" height="136" rx="18" fill="#111827" />
  <rect x="348" y="336" width="264" height="136" rx="18" fill="#111827" />
  <rect x="632" y="336" width="264" height="136" rx="18" fill="#111827" />
  <g fill="#38bdf8">
    <circle cx="96" cy="104" r="8" />
    <circle cx="122" cy="104" r="8" />
    <circle cx="148" cy="104" r="8" />
    <rect x="96" y="134" width="112" height="10" rx="5" />
    <rect x="96" y="154" width="92" height="10" rx="5" />
    <rect x="96" y="174" width="72" height="10" rx="5" />
  </g>
  <g fill="#64748b">
    <rect x="360" y="108" width="120" height="14" rx="7" />
    <rect x="360" y="140" width="480" height="10" rx="5" />
    <rect x="360" y="160" width="400" height="10" rx="5" />
    <rect x="360" y="180" width="240" height="10" rx="5" />
  </g>
  <g fill="#38bdf8">
    <rect x="96" y="256" width="300" height="14" rx="7" />
    <rect x="96" y="284" width="420" height="10" rx="5" />
    <rect x="96" y="304" width="360" height="10" rx="5" />
  </g>
  <g fill="#94a3b8">
    <rect x="384" y="368" width="180" height="10" rx="5" />
    <rect x="384" y="388" width="200" height="10" rx="5" />
    <rect x="384" y="408" width="140" height="10" rx="5" />
    <rect x="384" y="428" width="160" height="10" rx="5" />
  </g>
</svg>
